# Created using Spin 3D

# Vertex Array
v -7.500 7.000 27.000 152 152 152
v -8.000 7.000 26.274 152 152 152
v -7.500 10.800 23.000 152 152 152
v -8.000 10.364 22.733 152 152 152
v -7.500 12.400 18.500 152 152 152
v -8.000 11.900 18.414 152 152 152
v -7.500 12.400 12.700 152 152 152
v -8.000 11.900 12.773 152 152 152
v -7.500 11.000 8.000 152 152 152
v -8.000 10.542 8.215 152 152 152
v -8.000 7.000 2.901 152 152 152
v -7.500 7.000 2.000 152 152 152
v 7.500 7.000 27.000 152 152 152
v 7.500 10.800 23.000 152 152 152
v 7.500 12.400 18.500 152 152 152
v 7.500 12.400 12.700 152 152 152
v 7.500 11.000 8.000 152 152 152
v 7.500 7.000 2.000 152 152 152
v 8.000 10.364 22.733 152 152 152
v 8.000 7.000 26.274 152 152 152
v 8.000 7.000 2.901 152 152 152
v 8.000 10.542 8.215 152 152 152
v 8.000 11.900 12.773 152 152 152
v 8.000 11.900 18.414 152 152 152

# Normal Array
vn -0.707 0.513 0.487
vn -0.707 0.513 0.487
vn -0.707 0.666 0.237
vn -0.707 0.666 0.237
vn -0.707 0.707 -0.000
vn -0.707 0.707 -0.000
vn -0.707 0.678 -0.202
vn -0.707 0.678 -0.202
vn -0.707 0.588 -0.392
vn -0.707 0.588 -0.392
vn -0.000 0.725 0.689
vn 0.000 0.725 0.689
vn -0.000 0.942 0.335
vn 0.000 0.942 0.335
vn 0.000 1.000 -0.000
vn 0.000 1.000 -0.000
vn 0.000 0.958 -0.285
vn 0.000 0.958 -0.285
vn 0.000 0.832 -0.555
vn 0.000 0.832 -0.555
vn 0.707 0.513 0.487
vn 0.707 0.513 0.487
vn 0.707 0.588 -0.392
vn 0.707 0.588 -0.392
vn 0.707 0.678 -0.202
vn 0.707 0.678 -0.202
vn 0.707 0.707 -0.000
vn 0.707 0.707 -0.000
vn 0.707 0.666 0.237
vn 0.707 0.666 0.237
vn 1.000 0.000 0.000
vn 1.000 0.000 0.000
vn 1.000 0.000 -0.000
vn 1.000 0.000 -0.000
vn 0.000 -1.000 -0.000
vn 0.000 -1.000 -0.000
vn 0.000 -1.000 -0.000
vn -0.000 -1.000 -0.000
vn 0.000 -1.000 0.000
vn -0.000 -1.000 0.000
vn -1.000 0.000 0.000
vn -1.000 0.000 -0.000
vn -1.000 0.000 0.000
vn -1.000 0.000 0.000

# Facets
f 1//1 3//1 2//1
f 3//2 4//2 2//2
f 5//3 6//3 3//3
f 6//4 4//4 3//4
f 5//5 7//5 6//5
f 7//6 8//6 6//6
f 7//7 9//7 8//7
f 9//8 10//8 8//8
f 10//9 9//9 11//9
f 9//10 12//10 11//10
f 1//11 13//11 3//11
f 13//12 14//12 3//12
f 3//13 14//13 5//13
f 14//14 15//14 5//14
f 5//15 15//15 7//15
f 15//16 16//16 7//16
f 7//17 16//17 9//17
f 16//18 17//18 9//18
f 9//19 17//19 12//19
f 17//20 18//20 12//20
f 19//21 14//21 20//21
f 14//22 13//22 20//22
f 18//23 17//23 21//23
f 17//24 22//24 21//24
f 16//25 23//25 17//25
f 23//26 22//26 17//26
f 15//27 24//27 16//27
f 24//28 23//28 16//28
f 15//29 14//29 24//29
f 14//30 19//30 24//30
f 20//31 21//31 19//31
f 21//32 22//32 19//32
f 22//33 23//33 19//33
f 23//34 24//34 19//34
f 2//35 11//35 1//35
f 11//36 13//36 1//36
f 11//37 21//37 13//37
f 21//38 20//38 13//38
f 18//39 21//39 12//39
f 21//40 11//40 12//40
f 2//41 4//41 11//41
f 4//42 10//42 11//42
f 4//43 8//43 10//43
f 8//44 4//44 6//44

# Thank you for using Spin 3D

